<svg enable-background="new 0 0 311.04 108.79" viewBox="0 0 311.04 108.79" xmlns="http://www.w3.org/2000/svg"><path d="m63.02 42.75c-1.93-1.62-2.18-4.51-.56-6.44l29.1-34.68c1.62-1.93 4.51-2.18 6.44-.56 1.83 1.54 2.07 4.3.54 6.13l-29.38 35.01c-1.55 1.84-4.31 2.08-6.14.54z"/><path d="m53.69 40.84c-2.44.89-5.17-.38-6.06-2.83l-4.94-13.57c-.89-2.44.38-5.17 2.83-6.06 2.17-.79 4.59.34 5.38 2.51l5.3 14.57c.79 2.17-.34 4.59-2.51 5.38z"/><path d="m64.89 57.4c2.36-.86 5 .37 5.86 2.73l15.48 42.54c.86 2.36-.37 5-2.73 5.86-2.25.82-4.76-.35-5.58-2.6l-15.63-42.95c-.82-2.25.35-4.76 2.6-5.58z"/><path d="m57.33 61.42c1.99 1.67 2.25 4.67.58 6.66l-9.28 11.06c-1.67 1.99-4.67 2.25-6.66.58-1.77-1.48-2-4.14-.52-5.91l9.97-11.88c1.48-1.76 4.14-1.99 5.91-.51z"/><path d="m53.66 52.53c-.44 2.48-2.82 4.14-5.3 3.71l-44.58-7.86c-2.48-.44-4.14-2.82-3.71-5.3.42-2.36 2.68-3.94 5.04-3.53l45.01 7.94c2.37.42 3.96 2.68 3.54 5.04z"/><path d="m94.53 51.43c-.45 2.56-2.92 4.29-5.48 3.83l-14.22-2.51c-2.56-.45-4.29-2.92-3.83-5.48.4-2.27 2.59-3.8 4.86-3.4l15.27 2.69c2.27.41 3.8 2.6 3.4 4.87z"/><path d="m109.66 68.78v-2.17c3.25 1.01 6.84 1.52 10.76 1.52 6.35 0 9.52-2.53 9.52-7.59 0-3.47-2.11-5.21-6.33-5.21h-6.81c-5.77 0-8.65-2.53-8.65-7.59 0-6.07 4.16-9.11 12.47-9.11 3.47 0 6.83.43 10.09 1.3v1.95c-3.25-.87-6.61-1.3-10.09-1.3-6.8 0-10.19 2.39-10.19 7.16 0 3.62 2.13 5.42 6.38 5.42h6.81c5.74 0 8.61 2.46 8.61 7.37 0 6.36-3.93 9.54-11.8 9.54-3.93.01-7.52-.42-10.77-1.29z"/><path d="m137.2 54.4c0-10.51 5.19-15.77 15.57-15.77 10.22 0 15.33 5.26 15.33 15.77 0 10.45-5.11 15.68-15.33 15.68-10.37 0-15.57-5.23-15.57-15.68zm15.58 13.73c8.56 0 12.84-4.62 12.84-13.86 0-9.12-4.28-13.69-12.84-13.69-8.72 0-13.08 4.56-13.08 13.69 0 9.24 4.36 13.86 13.08 13.86z"/><path d="m175.81 38.85v29.06h17.96v1.95h-20.24v-31.02z"/><path d="m196.48 69.86 14.03-31.02h2.71l14.1 31.02h-2.71l-4.55-10.41h-13.19l.67-1.95h11.65l-7.46-16.87-12.82 29.24z"/><path d="m231.12 69.86v-31.02h12.8c5.61 0 8.42 2.48 8.42 7.44 0 4.29-3.04 7.34-9.13 9.13l10.48 14.44h-3.12l-10.3-14.38v-1.54c6.36-.94 9.54-3.43 9.54-7.48 0-3.73-2.08-5.6-6.25-5.6h-10.15v29h-2.29z"/><path d="m256.39 69.86v-4.34c10.34-7.19 15.51-13.11 15.51-17.79 0-2.75-1.88-4.12-5.64-4.12-3.18 0-6.18.8-9 2.39v-5.21c2.82-1.45 5.82-2.17 9-2.17 7.59 0 11.39 3.04 11.39 9.11 0 5.35-4.14 11.06-12.43 17.13h12.43v4.99h-21.26z"/><path d="m283.06 69.86v-31.02h13.45c9.69 0 14.53 4.89 14.53 14.66 0 10.9-4.84 16.35-14.53 16.35zm12.58-4.99c6.43 0 9.65-3.79 9.65-11.37 0-6.45-3.22-9.67-9.65-9.67h-6.83v21.04z"/></svg>