<?xml version="1.0" encoding="utf-8"?>
<!-- Generator: Adobe Illustrator 24.1.0, SVG Export Plug-In . SVG Version: 6.00 Build 0)  -->
<svg version="1.0" id="Layer_1" xmlns="http://www.w3.org/2000/svg" xmlns:xlink="http://www.w3.org/1999/xlink" x="0px" y="0px"
	 viewBox="0 0 202.9 134.97" style="enable-background:new 0 0 202.9 134.97;" xml:space="preserve">
<style type="text/css">
	.st0{fill:#0B0146;}
	.st1{fill:#FF6601;}
	.st2{fill:#FF8001;}
	.st3{fill:#FFB301;}
	.st4{fill:#FFCC01;}
	.st5{fill:#FF9901;}
</style>
<g>
	<g>
		<path class="st0" d="M1.52,133.67v-2.17c3.25,1.01,6.84,1.52,10.76,1.52c6.35,0,9.52-2.53,9.52-7.59c0-3.47-2.11-5.21-6.33-5.21
			H8.65c-5.77,0-8.65-2.53-8.65-7.59c0-6.07,4.16-9.11,12.47-9.11c3.47,0,6.83,0.43,10.09,1.3v1.95c-3.25-0.87-6.61-1.3-10.09-1.3
			c-6.8,0-10.19,2.39-10.19,7.16c0,3.62,2.13,5.42,6.38,5.42h6.81c5.74,0,8.61,2.46,8.61,7.38c0,6.36-3.93,9.54-11.8,9.54
			C8.36,134.97,4.77,134.54,1.52,133.67z"/>
		<path class="st0" d="M29.06,119.29c0-10.51,5.19-15.77,15.57-15.77c10.22,0,15.33,5.26,15.33,15.77
			c0,10.45-5.11,15.68-15.33,15.68C34.25,134.97,29.06,129.74,29.06,119.29z M44.64,133.02c8.56,0,12.84-4.62,12.84-13.86
			c0-9.12-4.28-13.69-12.84-13.69c-8.72,0-13.08,4.56-13.08,13.69C31.56,128.4,35.92,133.02,44.64,133.02z"/>
		<path class="st0" d="M67.67,103.74v29.06h17.96v1.95H65.39v-31.02H67.67z"/>
		<path class="st0" d="M88.34,134.75l14.03-31.02h2.71l14.1,31.02h-2.71l-4.55-10.41H98.73l0.67-1.95h11.65l-7.46-16.87
			l-12.82,29.24H88.34z"/>
		<path class="st0" d="M122.98,134.75v-31.02h12.8c5.61,0,8.42,2.48,8.42,7.44c0,4.29-3.04,7.34-9.13,9.13l10.48,14.45h-3.12
			l-10.3-14.38v-1.54c6.36-0.94,9.54-3.43,9.54-7.48c0-3.73-2.08-5.6-6.25-5.6h-10.15v29H122.98z"/>
		<path class="st1" d="M148.25,134.75v-4.34c10.34-7.19,15.51-13.11,15.51-17.79c0-2.75-1.88-4.12-5.64-4.12
			c-3.18,0-6.18,0.8-9,2.39v-5.21c2.82-1.45,5.82-2.17,9-2.17c7.59,0,11.39,3.04,11.39,9.11c0,5.35-4.14,11.06-12.43,17.13h12.43
			v4.99H148.25z"/>
		<path class="st1" d="M174.92,134.75v-31.02h13.45c9.69,0,14.53,4.89,14.53,14.66c0,10.9-4.84,16.35-14.53,16.35H174.92z
			 M187.5,129.76c6.43,0,9.65-3.79,9.65-11.37c0-6.45-3.22-9.67-9.65-9.67h-6.83v21.04H187.5z"/>
	</g>
	<g>
		<path class="st2" d="M112.62,35.01L112.62,35.01c-1.58-1.32-1.79-3.7-0.46-5.28L136,1.33c1.32-1.58,3.7-1.79,5.28-0.46v0
			c1.5,1.26,1.7,3.52,0.44,5.02l-24.07,28.68C116.39,36.08,114.13,36.27,112.62,35.01z"/>
		<path class="st1" d="M104.99,33.45L104.99,33.45c-2,0.73-4.23-0.31-4.96-2.31l-4.05-11.12c-0.73-2,0.31-4.23,2.31-4.96l0,0
			c1.78-0.65,3.76,0.28,4.4,2.05l4.35,11.94C107.69,30.82,106.76,32.8,104.99,33.45z"/>
		<path class="st3" d="M114.16,47.02L114.16,47.02c1.94-0.7,4.1,0.3,4.8,2.24l12.68,34.84c0.7,1.94-0.3,4.1-2.24,4.8h0
			c-1.84,0.67-3.9-0.29-4.57-2.13l-12.81-35.19C111.36,49.75,112.32,47.69,114.16,47.02z"/>
		<path class="st0" d="M107.96,50.31L107.96,50.31c1.63,1.37,1.85,3.82,0.48,5.46l-7.61,9.06c-1.37,1.63-3.82,1.85-5.46,0.48l0,0
			c-1.45-1.21-1.64-3.39-0.42-4.84l8.17-9.73C104.34,49.29,106.51,49.1,107.96,50.31z"/>
		<path class="st4" d="M104.96,43.03L104.96,43.03c-0.36,2.03-2.31,3.4-4.34,3.04L64.1,39.63c-2.03-0.36-3.4-2.31-3.04-4.34v0
			c0.34-1.93,2.2-3.23,4.13-2.89l36.87,6.5C104,39.24,105.3,41.1,104.96,43.03z"/>
		<path class="st5" d="M138.44,42.13L138.44,42.13c-0.37,2.1-2.39,3.51-4.49,3.14l-11.65-2.05c-2.1-0.37-3.51-2.39-3.14-4.49l0,0
			c0.33-1.86,2.12-3.12,3.98-2.79l12.51,2.21C137.51,38.47,138.77,40.26,138.44,42.13z"/>
	</g>
</g>
</svg>
